<svg id="visual" viewBox="0 0 900 600" width="900" height="600" xmlns="http://www.w3.org/2000/svg" xmlns:xlink="http://www.w3.org/1999/xlink" version="1.1"><rect x="0" y="0" width="900" height="600" fill="#002233"></rect><path d="M0 526L25 519.3C50 512.7 100 499.3 150 502.2C200 505 250 524 300 533.3C350 542.7 400 542.3 450 528C500 513.7 550 485.3 600 486.5C650 487.7 700 518.3 750 525.8C800 533.3 850 517.7 875 509.8L900 502L900 601L875 601C850 601 800 601 750 601C700 601 650 601 600 601C550 601 500 601 450 601C400 601 350 601 300 601C250 601 200 601 150 601C100 601 50 601 25 601L0 601Z" fill="#0066FF" stroke-linecap="round" stroke-linejoin="miter"></path></svg>